<?xml version="1.0" standalone="no"?><!DOCTYPE svg PUBLIC "-//W3C//DTD SVG 1.1//EN" "http://www.w3.org/Graphics/SVG/1.1/DTD/svg11.dtd"><svg t="1624352807631" class="icon" viewBox="0 0 1024 1024" version="1.1" xmlns="http://www.w3.org/2000/svg" p-id="11260" xmlns:xlink="http://www.w3.org/1999/xlink" width="200" height="200"><defs><style type="text/css"></style></defs><path d="M276.48 404.48c56.32 31.232 110.08 20.48 145.408 9.728 48.64-14.848 95.232-47.104 139.776-78.336 61.44-43.008 119.296-82.944 171.008-74.24 116.736 19.968 134.144 189.44 147.968 325.12 1.536 13.312 2.56 26.624 4.096 39.424a33.1264 33.1264 0 0 0 32.768 29.184 5.5296 5.5296 0 0 0 3.584-1.024 32.8192 32.8192 0 0 0 29.184-36.352c-1.536-12.288-2.56-25.6-4.096-38.912-15.36-149.504-36.352-354.816-202.24-382.976-77.824-13.312-149.504 36.864-219.136 84.992-40.96 28.672-83.456 57.856-121.856 69.632-28.16 8.704-60.928 14.848-94.208-4.096-49.664-27.648-91.648-105.984-122.368-226.304A32.768 32.768 0 0 0 122.88 136.704C158.72 279.04 209.408 366.592 276.48 404.48z" p-id="11261" fill="#ffffff"></path><path d="M65.536 957.952V0H0v1023.488h1024v-65.536H65.536z" p-id="11262" fill="#ffffff"></path><path d="M187.8016 772.1472h56.2688v-93.1328h92.5696v-56.32H244.0704v-93.1328H187.8016v93.1328H95.232v56.32h92.5696v93.1328zM375.04 813.056h241.408v56.2688H375.04zM158.14656 929.62816l354.79552-354.79552 21.72416 21.72416L179.8656 951.3472z" p-id="11263" fill="#ffffff"></path></svg>