<?xml version="1.0" standalone="no"?><!DOCTYPE svg PUBLIC "-//W3C//DTD SVG 1.1//EN" "http://www.w3.org/Graphics/SVG/1.1/DTD/svg11.dtd"><svg t="1622016129833" class="icon" viewBox="0 0 1024 1024" version="1.1" xmlns="http://www.w3.org/2000/svg" p-id="2571" xmlns:xlink="http://www.w3.org/1999/xlink" width="200" height="200"><defs><style type="text/css"></style></defs><path d="M358.71709216 202.00062172l0 130.08066413 108.11258236-108.11258235-1e-8 202.89621621 90.34065098 0-1e-8-202.89621621 108.11258236 108.11258235 0-130.08066413L512 48.71771386z" p-id="2572" fill="#ffffff"></path><path d="M986.34666667 677.22666665c-0.10666667-0.85333333-0.21333333-1.6-0.53333334-2.45333335-0.96-3.30666667-2.45333333-6.4-4.90666666-8.74666666 0 0 0-0.10666667-0.10666667-0.10666666l-262.4-252.37333334c-3.62666667-3.52-8.53333333-5.44-13.54666667-5.44H319.14666667c-5.01333333 0-9.92 1.92-13.54666667 5.44L43.09333333 665.91999998s0 0.10666667-0.10666666 0.10666666c-2.45333333 2.34666667-3.94666667 5.44-4.90666667 8.74666666-0.21333333 0.85333333-0.42666667 1.6-0.53333333 2.45333335-0.10666667 0.96-0.53333333 1.70666667-0.53333334 2.77333332v252.37333333c0 10.77333333 8.74666667 19.52 19.52 19.52000001h910.72c10.77333333 0 19.52-8.74666667 19.52-19.52000001V679.99999997c0.10666667-0.96-0.32-1.81333333-0.42666666-2.77333332zM578.24 831.99999998L512 898.23999998l-66.24-66.24v-56.21333334l46.72 46.72000001v-87.68h39.04v87.68l46.72-46.72000001v56.21333334zM105.17333333 660.47999997l221.86666667-213.22666667h370.02666667l221.86666666 213.22666667H105.17333333z" p-id="2573" fill="#ffffff"></path></svg>