<?xml version="1.0" standalone="no"?><!DOCTYPE svg PUBLIC "-//W3C//DTD SVG 1.1//EN" "http://www.w3.org/Graphics/SVG/1.1/DTD/svg11.dtd"><svg t="1627609994406" class="icon" viewBox="0 0 1024 1024" version="1.1" xmlns="http://www.w3.org/2000/svg" p-id="2031" xmlns:xlink="http://www.w3.org/1999/xlink" width="200" height="200"><defs><style type="text/css">@font-face { font-family: feedback-iconfont; src: url("//at.alicdn.com/t/font_1031158_1uhr8ri0pk5.eot?#iefix") format("embedded-opentype"), url("//at.alicdn.com/t/font_1031158_1uhr8ri0pk5.woff2") format("woff2"), url("//at.alicdn.com/t/font_1031158_1uhr8ri0pk5.woff") format("woff"), url("//at.alicdn.com/t/font_1031158_1uhr8ri0pk5.ttf") format("truetype"), url("//at.alicdn.com/t/font_1031158_1uhr8ri0pk5.svg#iconfont") format("svg"); }
</style></defs><path d="M53.76 204.8h-0.3584v716.8L53.76 204.8z m406.784 31.4368C460.544 218.8288 488.448 204.8 512 204.8c23.552 0 51.3536 14.08 51.3536 31.4368V435.2l78.6432-64.9216c10.6496-8.3968 26.624-11.8784 41.7792-9.0112 15.104 2.816 26.9312 11.52 30.7712 22.6304 3.84 11.1616-0.8192 22.9376-12.288 30.7712L531.6608 563.2a36.0448 36.0448 0 0 1-40.0896 0L320.8704 414.72c-15.6672-12.4416-15.2064-31.744 1.024-43.6736 16.2304-11.9808 42.496-12.288 59.2384-0.768L460.544 435.2V236.2368zM283.2896 665.6c-23.552 0-27.2896-11.4688-27.2896-25.6s3.7376-25.6 27.2896-25.6h457.8304c23.552 0 26.88 11.4688 26.88 25.6s-3.328 25.6-26.88 25.6H283.2896zM1024 606.2592v324.6592c0 23.1424-25.4464 41.8816-56.8832 41.8816H56.832C25.4464 972.8 0 954.0608 0 930.9184V195.7376c0-23.1424 25.4464-41.8816 56.8832-41.8816h96.768V93.0816C153.6 69.9392 179.0976 51.2 210.5344 51.2h602.9312c31.3856 0 56.832 18.7392 56.832 41.8816v60.7744h96.768c31.488 0 56.9344 18.7392 56.9344 41.8816v410.5216zM204.4416 768h615.0656V102.4H204.4416v665.6z" p-id="2032" fill="#ffffff"></path></svg>