<?xml version="1.0" standalone="no"?><!DOCTYPE svg PUBLIC "-//W3C//DTD SVG 1.1//EN" "http://www.w3.org/Graphics/SVG/1.1/DTD/svg11.dtd"><svg t="1622016295769" class="icon" viewBox="0 0 1024 1024" version="1.1" xmlns="http://www.w3.org/2000/svg" p-id="3492" xmlns:xlink="http://www.w3.org/1999/xlink" width="200" height="200"><defs><style type="text/css"></style></defs><path d="M600.4736 644.232533v110.592H534.528V645.461333l-98.4064-200.362666h75.400533l51.985067 118.3744a293.546667 293.546667 0 0 1 7.406933 24.405333h0.785067a106.154667 106.154667 0 0 1 6.621867-23.790933l53.384533-119.022934h70.007467l-101.205334 199.202134z m-245.384533 110.592l-55.6032-102.775466c-2.013867-3.754667-4.096-10.478933-6.212267-20.206934H292.522667a140.288 140.288 0 0 1-7.168 20.821334l-55.842134 102.161066H155.989333l93.934934-154.965333-90.794667-154.8288h80.384l46.216533 94.8224c3.754667 7.714133 6.929067 16.247467 9.591467 25.6h0.8192c2.798933-8.430933 6.178133-17.271467 10.171733-26.624l51.029334-93.7984h73.762133l-93.5936 153.6 96.017067 156.194133h-78.404267zM1024 588.629333l-149.7088-120.149333v87.381333h-70.621867A382.225067 382.225067 0 0 0 455.68 207.837867V149.7088h87.381333L422.912 0 302.762667 149.7088h87.381333v58.094933A382.225067 382.225067 0 0 0 42.0864 555.861333H0v65.536h42.0864A382.225067 382.225067 0 0 0 390.144 969.386667V1024h65.536v-54.5792a382.225067 382.225067 0 0 0 348.0576-348.023467h70.587733v87.381334L1024 588.629333z" fill="#ffffff" p-id="3493"></path></svg>