<?xml version="1.0" standalone="no"?><!DOCTYPE svg PUBLIC "-//W3C//DTD SVG 1.1//EN" "http://www.w3.org/Graphics/SVG/1.1/DTD/svg11.dtd"><svg t="1624331710643" class="icon" viewBox="0 0 1024 1024" version="1.1" xmlns="http://www.w3.org/2000/svg" p-id="7708" xmlns:xlink="http://www.w3.org/1999/xlink" width="200" height="200"><defs><style type="text/css"></style></defs><path d="M789.333333 106.666667a128 128 0 0 1 127.914667 123.2L917.333333 234.666667v554.666666a128 128 0 0 1-123.2 127.914667L789.333333 917.333333H576a42.666667 42.666667 0 0 1-3.2-85.226666L576 832h213.333333a42.666667 42.666667 0 0 0 42.56-39.466667L832 789.333333V234.666667a42.666667 42.666667 0 0 0-39.466667-42.56L789.333333 192H576a42.666667 42.666667 0 0 1-3.2-85.226667L576 106.666667h213.333333zM426.666667 106.666667a42.666667 42.666667 0 0 1 3.2 85.226666L426.666667 192H213.333333a42.666667 42.666667 0 0 0-42.56 39.466667L170.666667 234.666667v554.666666a42.666667 42.666667 0 0 0 39.466666 42.56L213.333333 832h213.333334a42.666667 42.666667 0 0 1 3.2 85.226667L426.666667 917.333333H213.333333a128 128 0 0 1-127.914666-123.2L85.333333 789.333333V234.666667a128 128 0 0 1 123.2-127.914667L213.333333 106.666667h213.333334z m222.165333 284.650666l90.517333 90.517334a42.666667 42.666667 0 0 1 0 60.330666l-90.517333 90.517334a42.666667 42.666667 0 0 1-60.330667-60.352l17.664-17.685334L277.333333 554.666667a42.666667 42.666667 0 1 1 0-85.333334h328.810667l-17.642667-17.664a42.666667 42.666667 0 0 1 60.330667-60.352z" fill="#ffffff" p-id="7709"></path></svg>