<?xml version="1.0" standalone="no"?><!DOCTYPE svg PUBLIC "-//W3C//DTD SVG 1.1//EN" "http://www.w3.org/Graphics/SVG/1.1/DTD/svg11.dtd"><svg t="1604629302565" class="icon" viewBox="0 0 1104 1024" version="1.1" xmlns="http://www.w3.org/2000/svg" p-id="3511" xmlns:xlink="http://www.w3.org/1999/xlink" width="215.625" height="200"><defs><style type="text/css"></style></defs><path d="M592.842105 754.526316v134.736842h269.473684a26.947368 26.947368 0 0 1 26.947369 26.947368v80.842106a26.947368 26.947368 0 0 1-26.947369 26.947368H269.473684a26.947368 26.947368 0 0 1-26.947368-26.947368v-80.842106a26.947368 26.947368 0 0 1 26.947368-26.947368h269.473684v-134.736842H121.263158A121.263158 121.263158 0 0 1 0 633.263158v-485.052632A121.263158 121.263158 0 0 1 121.263158 26.947368h188.631579v80.842106h-188.631579A40.421053 40.421053 0 0 0 80.842105 148.210526v485.052632A40.421053 40.421053 0 0 0 121.263158 673.684211h862.315789a40.421053 40.421053 0 0 0 40.421053-40.421053v-485.052632A40.421053 40.421053 0 0 0 983.578947 107.789474h-161.68421V26.947368h161.68421A121.263158 121.263158 0 0 1 1104.842105 148.210526v485.052632a121.263158 121.263158 0 0 1-121.263158 121.263158H592.842105zM256 404.210526h107.789474v188.631579h-107.789474v-188.631579z m161.684211-80.842105h107.789473v269.473684h-107.789473V323.368421z m161.68421-53.894737h107.789474v323.368421h-107.789474V269.473684z m161.684211-80.842105h107.789473v404.210526h-107.789473V188.631579z m-323.368421-188.631579h296.421052v107.789474h-296.421052V0z" p-id="3512" fill="#ffffff"></path></svg>