<?xml version="1.0" standalone="no"?><!DOCTYPE svg PUBLIC "-//W3C//DTD SVG 1.1//EN" "http://www.w3.org/Graphics/SVG/1.1/DTD/svg11.dtd"><svg t="1604629614671" class="icon" viewBox="0 0 1024 1024" version="1.1" xmlns="http://www.w3.org/2000/svg" p-id="9417" xmlns:xlink="http://www.w3.org/1999/xlink" width="200" height="200"><defs><style type="text/css"></style></defs><path d="M511.8 209c-201.7 0-374 125.5-443.8 302.6 69.8 177.1 242.1 302.6 443.8 302.6 201.9 0 374-125.5 443.8-302.6C885.8 334.5 713.7 209 511.8 209z m0 504.3c-111.4 0-201.7-90.4-201.7-201.7s90.4-201.7 201.7-201.7 201.7 90.4 201.7 201.7-90.3 201.7-201.7 201.7z m0-322.7c-66.8 0-121 54.3-121 121s54.3 121 121 121 121-54.3 121-121-54.2-121-121-121z" p-id="9418" fill="#ffffff"></path></svg>