<?xml version="1.0" standalone="no"?><!DOCTYPE svg PUBLIC "-//W3C//DTD SVG 1.1//EN" "http://www.w3.org/Graphics/SVG/1.1/DTD/svg11.dtd"><svg t="1604479512189" class="icon" viewBox="0 0 1024 1024" version="1.1" xmlns="http://www.w3.org/2000/svg" p-id="1283" xmlns:xlink="http://www.w3.org/1999/xlink" width="200" height="200"><defs><style type="text/css"></style></defs><path d="M195.2768 615.936c16.4864-4.5056 33.8944 7.0656 38.8096 25.8048L324.096 980.992c5.0176 18.7392-4.4032 37.5808-20.8896 41.984-16.4864 4.5056-33.8944-7.0656-38.8096-25.8048l-90.0096-339.2512c-4.9152-18.7392 4.4032-37.4784 20.8896-41.984zM829.44 617.7792c-16.6912-4.4032-34.304 7.0656-39.3216 25.7024l-91.136 336.7936c-5.0176 18.6368 4.4032 37.2736 21.0944 41.6768 16.6912 4.4032 34.304-7.0656 39.3216-25.7024l91.136-336.7936c5.0176-18.5344-4.4032-37.2736-21.0944-41.6768z" p-id="1284"></path><path d="M528.9984 376.2176c24.1664-24.3712 63.2832-24.3712 87.4496 0L834.9696 596.992c24.1664 24.3712 24.1664 63.8976 0 88.2688-24.1664 24.3712-63.2832 24.3712-87.4496 0L528.9984 464.4864c-24.1664-24.3712-24.1664-63.8976 0-88.2688z" p-id="1285"></path><path d="M494.1824 377.0368c-23.9616-24.1664-62.8736-24.1664-86.8352 0L190.3616 596.2752c-23.9616 24.1664-23.9616 63.488 0 87.6544 23.9616 24.1664 62.8736 24.1664 86.8352 0l216.9856-219.2384c23.9616-24.1664 23.9616-63.3856 0-87.6544z" p-id="1286"></path><path d="M512 281.088c68.3008 0 123.6992 55.9104 123.6992 124.928s-55.3984 124.928-123.6992 124.928-123.6992-55.9104-123.6992-124.928 55.3984-124.928 123.6992-124.928zM231.8336 560.2304c42.7008 0 77.312 34.6112 77.312 77.312s-34.6112 77.312-77.312 77.312-77.2096-34.7136-77.2096-77.312c0-42.7008 34.6112-77.312 77.2096-77.312zM792.1664 560.2304c42.7008 0 77.312 34.6112 77.312 77.312s-34.6112 77.312-77.312 77.312-77.312-34.6112-77.312-77.312 34.6112-77.312 77.312-77.312zM512 0c17.1008 0 31.0272 13.9264 31.0272 31.1296S529.1008 62.3616 512 62.3616c-17.1008 0-31.0272-13.9264-31.0272-31.1296S494.8992 0 512 0z" p-id="1287"></path><path d="M512 62.3616c17.1008 0 31.0272 13.9264 31.0272 31.1296s-13.9264 31.1296-31.0272 31.1296c-17.1008 0-31.0272-13.9264-31.0272-31.1296s13.9264-31.1296 31.0272-31.1296zM512 124.7232c17.1008 0 31.0272 14.0288 31.0272 31.3344S529.1008 187.392 512 187.392c-17.1008 0-31.0272-14.0288-31.0272-31.3344s13.9264-31.3344 31.0272-31.3344zM512 187.392c17.1008 0 31.0272 13.9264 31.0272 31.1296s-13.9264 31.1296-31.0272 31.1296c-17.1008 0-31.0272-13.9264-31.0272-31.1296S494.8992 187.392 512 187.392zM512 249.7536c17.1008 0 31.0272 13.9264 31.0272 31.1296 0 17.2032-13.9264 31.1296-31.0272 31.1296-17.1008 0-31.0272-13.9264-31.0272-31.1296 0-17.2032 13.9264-31.1296 31.0272-31.1296z" p-id="1288"></path></svg>