<?xml version="1.0" standalone="no"?><!DOCTYPE svg PUBLIC "-//W3C//DTD SVG 1.1//EN" "http://www.w3.org/Graphics/SVG/1.1/DTD/svg11.dtd"><svg t="1604455887382" class="icon" viewBox="0 0 1114 1024" version="1.1" xmlns="http://www.w3.org/2000/svg" p-id="9125" xmlns:xlink="http://www.w3.org/1999/xlink" width="217.578125" height="200"><defs><style type="text/css"></style></defs><path d="M975.014975 1023.395141H139.287854C67.454509 1023.395141 0 939.374323 0 849.384998V175.105704C0 85.116379 50.041398 1.098968 121.876446 1.098968h853.140233C1046.844912 1.098968 1114.302829 85.118083 1114.302829 175.105704v674.280998c0 89.987621-67.457917 174.008439-139.287854 174.008439z m104.465038-848.289437c0-64.278576-53.15429-130.506329-104.465038-130.50633H121.874742c-51.309045 0-87.053631 66.227754-87.053631 130.50633v674.280998c0 64.278576 53.15429 130.506329 104.465039 130.50633h835.727121c51.310749 0 104.466742-66.227754 104.466742-130.50633V175.105704z m-174.108965 435.021098h-696.439268c-71.833344 0-139.287854-84.020819-139.287853-174.008439V262.109923c0-89.989324 50.043101-174.008439 121.87815-174.008439h713.850675c71.829937 0 139.287854 84.020819 139.287854 174.008439v174.006736c-0.003408 89.989324-67.457917 174.010143-139.289558 174.010143z m104.465039-348.016879c0-64.278576-53.15429-130.506329-104.465039-130.506329H191.520373c-51.310749 0-87.053631 66.227754-87.053631 130.506329v174.006736c0 64.278576 53.15429 130.506329 104.465038 130.506329h696.439268c51.310749 0 104.465038-66.227754 104.465039-130.506329V262.109923zM713.852379 523.122582H679.026156V175.105704h174.110669v43.50211h-139.287853v261.012659h139.287853v43.498702h-139.287853v0.003407z m-208.933484 0h-34.821111V175.105704h34.821111v304.514769h139.287854v43.496998h-139.287854v0.005111z m-208.930076 0H261.162596V175.100592H435.276672v174.010143h-139.287853v174.011847z m104.465038-217.51566v-87.002516H295.988819v87.002516h104.465038z m-69.730822 587.278482h-156.871348V697.120799h156.871348v195.762901z m-34.8603-152.257384h-87.149044v108.738236h87.150748v-108.738236z m348.258822 152.257384h-156.871347V697.120799h156.871347v195.762901z m-34.860299-152.257384h-87.150749v108.738236h87.150749v-108.738236z m330.84571 152.257384h-156.869644V697.120799h156.871348v195.762901h-0.001704z m-34.860299-152.257384h-87.149045v108.738236h87.150749v-108.738236z" p-id="9126"></path></svg>