<?xml version="1.0" standalone="no"?><!DOCTYPE svg PUBLIC "-//W3C//DTD SVG 1.1//EN" "http://www.w3.org/Graphics/SVG/1.1/DTD/svg11.dtd"><svg t="1604453256540" class="icon" viewBox="0 0 1024 1024" version="1.1" xmlns="http://www.w3.org/2000/svg" p-id="1187" xmlns:xlink="http://www.w3.org/1999/xlink" width="200" height="200"><defs><style type="text/css"></style></defs><path d="M511.936008 0.127984a511.936008 511.936008 0 1 0 0.063992 1023.872016 511.936008 511.936008 0 0 0-0.127984-1023.872016z m0 945.097863A433.097863 433.097863 0 0 1 78.774153 511.936008 433.097863 433.097863 0 1 1 511.936008 945.225847z" p-id="1188"></path><path d="M564.793401 703.912011V292.699413h-47.226097a239.266092 239.266092 0 0 1-51.833521 40.890888c-20.733408 11.51856-39.739033 19.581552-58.168729 24.188977v62.200225c38.011249-10.942632 69.687289-28.220472 94.452194-51.833521V703.912011h62.776153z" p-id="1189"></path></svg>