<?xml version="1.0" standalone="no"?><!DOCTYPE svg PUBLIC "-//W3C//DTD SVG 1.1//EN" "http://www.w3.org/Graphics/SVG/1.1/DTD/svg11.dtd"><svg t="1604455100914" class="icon" viewBox="0 0 1024 1024" version="1.1" xmlns="http://www.w3.org/2000/svg" p-id="5717" xmlns:xlink="http://www.w3.org/1999/xlink" width="200" height="200"><defs><style type="text/css"></style></defs><path d="M512 995.556C245.367 995.556 28.444 778.633 28.444 512S245.367 28.444 512 28.444 995.556 245.367 995.556 512 778.633 995.556 512 995.556z m0-910.223C276.736 85.333 85.333 276.736 85.333 512S276.736 938.667 512 938.667 938.667 747.264 938.667 512 747.264 85.333 512 85.333z" fill="" p-id="5718"></path><path d="M392.138 714.499v-51.112c39.131 15.556 69.922 23.333 92.365 23.333 26.146 0 47.522-7.64 64.122-22.918 16.597-15.277 24.9-35.043 24.9-59.306 0-23.703-8.487-44.072-25.469-61.11-16.978-17.036-49.027-25.555-96.153-25.555h-21.71v-36.944l19.167-0.278c43.89 0 73.841-8.007 89.861-24.027 16.015-16.015 24.027-34.765 24.027-56.25 0-19.071-6.346-34.349-19.026-45.832-12.686-11.48-31.528-17.223-56.528-17.223-27.04 0-57.04 7.686-90 23.054v-47.778c23.514-7.959 41.847-12.68 55-14.165 13.146-1.482 26.015-2.222 38.61-2.222 43.514 0 75.557 8.707 96.11 26.112 20.558 17.408 30.835 40.465 30.835 69.166 0 16.11-2.964 30.234-8.89 42.362-5.927 12.132-14.907 23.43-26.945 33.889-12.04 10.465-28.706 19.493-50 27.082 26.85 6.297 46.806 14.353 59.862 24.166 13.056 9.82 22.918 22.13 29.582 36.944 6.668 14.817 10.001 30.743 10.001 47.778 0 32.222-11.02 60.974-33.055 86.25-22.042 25.278-58.889 37.916-110.555 37.916-25.555 0.003-57.594-4.443-96.111-13.332z" fill="" p-id="5719"></path></svg>