<?xml version="1.0" standalone="no"?><!DOCTYPE svg PUBLIC "-//W3C//DTD SVG 1.1//EN" "http://www.w3.org/Graphics/SVG/1.1/DTD/svg11.dtd"><svg t="1624331189271" class="icon" viewBox="0 0 1024 1024" version="1.1" xmlns="http://www.w3.org/2000/svg" p-id="4326" xmlns:xlink="http://www.w3.org/1999/xlink" width="200" height="200"><defs><style type="text/css"></style></defs><path d="M899.74016 128.064a125.888 125.888 0 0 0-124.48 127.168 128 128 0 0 0 40.768 94.08l-115.2 171.456a122.624 122.624 0 0 0-134.4 21.12l-135.104-120.32a128 128 0 0 0-79.936-160A124.032 124.032 0 0 0 194.52416 343.04a128.704 128.704 0 0 0 44.8 141.568L160.41216 623.552A124.288 124.288 0 0 0 5.40416 709.184a128 128 0 0 0 83.904 158.272 124.224 124.224 0 0 0 154.944-85.632 128.96 128.96 0 0 0-37.696-132.352l80.704-142.784a123.072 123.072 0 0 0 116.8-37.952l131.328 116.8a128 128 0 0 0 64 167.488 123.584 123.584 0 0 0 164.096-65.344 129.28 129.28 0 0 0-20.416-134.912l118.656-176.512a123.968 123.968 0 0 0 156.608-82.304 128 128 0 0 0-80.576-160 122.112 122.112 0 0 0-38.08-5.888z" fill="#ffffff" p-id="4327"></path></svg>