<?xml version="1.0" standalone="no"?><!DOCTYPE svg PUBLIC "-//W3C//DTD SVG 1.1//EN" "http://www.w3.org/Graphics/SVG/1.1/DTD/svg11.dtd"><svg t="1604455858972" class="icon" viewBox="0 0 1024 1024" version="1.1" xmlns="http://www.w3.org/2000/svg" p-id="8334" xmlns:xlink="http://www.w3.org/1999/xlink" width="200" height="200"><defs><style type="text/css"></style></defs><path d="M690.176 671.744c-13.312-2.56-25.6 6.144-27.648 19.456-2.56 13.312 6.144 25.6 19.456 27.648 68.608 13.312 110.08 34.816 110.08 46.08 0 2.56-3.584 6.144-13.312 13.312-13.312 8.704-32.768 16.896-57.856 24.064-54.272 15.872-128 24.064-206.336 24.064-78.336 0-153.088-8.704-206.336-24.064-25.6-7.168-44.544-15.872-57.856-24.064-10.752-7.168-14.336-10.752-14.336-13.312 0-9.728 37.376-30.208 100.352-43.52 13.312-2.56 21.504-15.872 17.92-29.184-1.024-13.312-14.336-21.504-27.648-17.92-85.504 17.92-138.752 47.104-138.752 90.624 0 67.584 144.896 108.544 326.144 108.544 181.248 0 326.144-40.96 326.144-108.544-1.536-45.056-58.368-75.264-150.016-93.184zM329.728 485.888l163.328 260.608c3.584 7.168 10.752 12.288 19.456 12.288 8.704 0 15.872-5.12 19.456-12.288l163.328-260.608h-0.512c22.528-34.304 35.328-75.264 35.328-118.784 0-120.32-97.28-217.6-217.6-217.6s-217.6 97.28-217.6 217.6c0 43.52 12.8 84.48 34.816 118.784z m182.784-218.624c54.784 0 99.328 44.544 99.328 99.328S567.296 465.92 512.512 465.92s-99.328-44.544-99.328-99.328 44.544-99.328 99.328-99.328z m0 0" p-id="8335"></path></svg>