<?xml version="1.0" standalone="no"?><!DOCTYPE svg PUBLIC "-//W3C//DTD SVG 1.1//EN" "http://www.w3.org/Graphics/SVG/1.1/DTD/svg11.dtd"><svg t="1604546990209" class="icon" viewBox="0 0 1048 1024" version="1.1" xmlns="http://www.w3.org/2000/svg" p-id="2888" xmlns:xlink="http://www.w3.org/1999/xlink" width="204.6875" height="200"><defs><style type="text/css"></style></defs><path d="M1029.619571 631.079092a80.18794 80.18794 0 0 0-80.187941 80.18794v214.101801H98.637582V711.267032a80.18794 80.18794 0 0 0-80.187941-80.18794H0.006415v343.204385a48.914644 48.914644 0 0 0 48.914644 49.716523h949.425215a49.716523 49.716523 0 0 0 49.716523-49.716523V631.079092z" fill="#ffffff" p-id="2889"></path><path d="M275.051051 279.054033a80.18794 80.18794 0 0 0 113.064996 0L481.134058 188.44166v491.552075a48.914644 48.914644 0 0 0 49.716523 48.914644 48.914644 48.914644 0 0 0 48.914644-48.914644V187.639781l89.008614 91.414252a80.18794 80.18794 0 0 0 113.866875 0l12.830071-12.028191L598.208451 69.763508 528.444943 0l-69.763508 68.961629-196.460455 198.064213z" fill="#ffffff" p-id="2890"></path></svg>