<?xml version="1.0" standalone="no"?><!DOCTYPE svg PUBLIC "-//W3C//DTD SVG 1.1//EN" "http://www.w3.org/Graphics/SVG/1.1/DTD/svg11.dtd"><svg t="1604547041922" class="icon" viewBox="0 0 1248 1024" version="1.1" xmlns="http://www.w3.org/2000/svg" p-id="3801" xmlns:xlink="http://www.w3.org/1999/xlink" width="243.75" height="200"><defs><style type="text/css"></style></defs><path d="M624.041007 244.492663c-147.497882 0-267.507337 119.989058-267.507337 267.500538 0 147.484284 119.995857 267.500538 267.507337 267.500538 147.497882 0 267.500538-119.989058 267.500537-267.500538 0-147.504681-120.016254-267.500538-267.500537-267.500538z m192.011048 267.500538c0 105.881097-86.14355 192.024646-192.011048 192.024646-105.874298 0-192.011048-86.14355-192.011049-192.024646 0-105.908293 86.129952-192.058642 192.011049-192.058642 105.867499 0 192.011048 86.157148 192.011048 192.058642z" p-id="3802" fill="#ffffff"></path><path d="M864.957387 76.849293c5.391621 0 8.16562 0.516725 9.226266 0.781887 1.86973 1.944519 6.105518 7.941252 14.964637 26.441378 3.610278 7.546909 11.007609 24.102516 20.288268 45.410637 0 0 8.342394 19.615165 15.059823 27.95076 5.935542 7.33614 37.741345 6.64264 37.741346 6.64264h123.374968c44.90071 0 81.404634 36.456331 81.404635 81.282252v600.564c0 44.791926-36.503924 81.214262-81.404635 81.214262H162.45572c-44.887112 0-81.397835-36.422336-81.397835-81.214262V265.358847c0-44.805524 36.510723-81.255056 81.397835-81.255056H289.434168s29.385353-1.584171 37.204223-6.64264c7.798473-5.044871 15.29099-27.284457 15.29099-27.284456 6.003532-13.319275 10.756045-24.360879 14.135157-32.852852 12.605378-31.737813 19.424793-38.502835 20.7506-39.583879 0.673103-0.21077 3.379112-0.890671 9.804183-0.890671h478.338066M874.34683 0H377.331864c-43.194157 0-62.775327 17.901813-87.360574 79.793267-4.228989 10.626864-10.218923 24.068521-13.625231 31.629029H144.411128C64.781037 111.429095 0 176.148941 0 255.704243v624.041006c0 79.541704 64.781037 144.254751 144.411128 144.254751h959.266556c79.623292 0 144.411128-64.713047 144.411128-144.254751V255.704243c0-79.5689-64.787836-144.302344-144.411128-144.302344h-128.195472c-5.908346-13.591236-16.494416-37.680154-21.988022-49.170493C933.22632 19.92792 918.805604 0 874.34683 0z" p-id="3803" fill="#ffffff"></path></svg>