<?xml version="1.0" standalone="no"?><!DOCTYPE svg PUBLIC "-//W3C//DTD SVG 1.1//EN" "http://www.w3.org/Graphics/SVG/1.1/DTD/svg11.dtd"><svg t="1604547095682" class="icon" viewBox="0 0 1048 1024" version="1.1" xmlns="http://www.w3.org/2000/svg" p-id="4625" xmlns:xlink="http://www.w3.org/1999/xlink" width="204.6875" height="200"><defs><style type="text/css"></style></defs><path d="M518.022095 104.301714a292.668952 292.668952 0 0 0-87.942095 219.794286c0.438857 32.182857-13.750857 72.167619-53.321143 112.88381L60.489143 746.325333c-61.68381 60.342857-60.879238 160.426667 1.048381 221.037715 61.586286 60.220952 162.742857 61.001143 224.060952 1.024L602.35581 658.529524c41.22819-38.302476 82.432-52.297143 116.540952-51.858286 82.090667 2.82819 163.474286-27.550476 222.98819-85.820952 86.235429-84.358095 111.250286-210.212571 66.194286-319.000381a30.47619 30.47619 0 0 0-49.493333-10.142476l-141.677715 138.605714c-28.623238 27.964952-76.629333 27.745524-105.545142-0.512-28.525714-27.91619-28.745143-73.728-0.512-101.351619l141.702095-138.605714a30.47619 30.47619 0 0 0-10.069333-50.102858c-110.592-43.885714-238.470095-19.577905-324.510477 64.585143z m42.617905 43.568762l5.632-5.339428c55.198476-50.590476 130.29181-71.777524 202.386286-60.269715l3.803428 0.658286-104.20419 101.936762c-52.784762 51.614476-52.345905 136.777143 0.512 188.464762l4.583619 4.291047c52.784762 47.055238 135.314286 46.031238 186.197333-3.754666l105.691429-103.399619 0.853333 4.583619c12.068571 72.46019-11.385905 147.992381-66.803809 202.24-47.420952 46.396952-112.566857 70.704762-178.956191 68.412952-49.615238-0.633905-106.057143 18.529524-160.01219 68.705524L242.95619 924.842667c-37.449143 36.668952-100.766476 36.156952-138.800761-1.024-37.64419-36.839619-38.13181-97.621333-1.048381-133.900191l316.830476-309.930666c51.98019-53.49181 71.728762-109.177905 71.070476-157.42781a232.155429 232.155429 0 0 1 64.073143-169.057524l5.558857-5.632z" fill="#ffffff" p-id="4626"></path><path d="M159.256381 827.513905a40.862476 40.862476 0 1 0 0 81.724952 40.862476 40.862476 0 0 0 0-81.724952z m0 20.772571a20.089905 20.089905 0 1 1 0 40.17981 20.089905 20.089905 0 0 1 0-40.17981z" fill="#ffffff" p-id="4627"></path></svg>