<?xml version="1.0" standalone="no"?><!DOCTYPE svg PUBLIC "-//W3C//DTD SVG 1.1//EN" "http://www.w3.org/Graphics/SVG/1.1/DTD/svg11.dtd"><svg t="1624928458571" class="icon" viewBox="0 0 1024 1024" version="1.1" xmlns="http://www.w3.org/2000/svg" p-id="1938" xmlns:xlink="http://www.w3.org/1999/xlink" width="200" height="200"><defs><style type="text/css"></style></defs><path d="M484.224 137.568L609.984 11.52c15.328-15.36 40.224-15.36 55.552 0 15.36 15.392 15.36 40.32 0 55.712L598.528 134.4C804.544 174.784 960 356.704 960 575.04 960 822.944 759.424 1024 512 1024S64 822.976 64 575.04c0-100.864 33.312-196.736 93.696-274.816a39.232 39.232 0 0 1 55.136-7.04c17.152 13.344 20.256 38.08 6.976 55.296a368.896 368.896 0 0 0-77.216 226.56c0 204.448 165.408 370.176 369.408 370.176 204 0 369.408-165.76 369.408-370.208C881.408 370.56 716 204.8 512 204.8a39.36 39.36 0 0 1-27.776-67.232zM512 352a128 128 0 0 1 128 128v192a128 128 0 1 1-256 0v-192a128 128 0 0 1 128-128z m0 64a64 64 0 0 0-64 64v192a64 64 0 0 0 128 0v-192a64 64 0 0 0-64-64z" fill="#ffffff" p-id="1939"></path></svg>